
          <svg data-logo="logo" xmlns="http://www.w3.org/2000/svg" viewBox="0 0 51 42">
            <g id="logogram" transform="translate(0, 1) rotate(0)"><path d="M6.02051 26.1427C7.63351 25.0117 10.2505 25.0117 11.8635 26.1427C13.4775 27.2727 13.4775 29.1068 11.8635 30.2378C10.2505 31.3688 7.63351 31.3688 6.02051 30.2378C4.40651 29.1068 4.40651 27.2727 6.02051 26.1427ZM22.7675 8.73775C25.1875 7.04175 29.1115 7.04175 31.5315 8.73775C33.9525 10.4348 33.9525 13.1848 31.5315 14.8808C29.1115 16.5768 25.1875 16.5768 22.7675 14.8808C20.3475 13.1848 20.3475 10.4348 22.7675 8.73775ZM13.8775 17.4397C15.8945 16.0267 19.1645 16.0267 21.1815 17.4397C23.1985 18.8537 23.1985 21.1458 21.1815 22.5588C19.1645 23.9728 15.8945 23.9728 13.8775 22.5588C11.8605 21.1458 11.8605 18.8537 13.8775 17.4397ZM0.9075 18.4637C2.1175 17.6157 4.0795 17.6157 5.2905 18.4637C6.5005 19.3117 6.5005 20.6878 5.2905 21.5358C4.0795 22.3838 2.1175 22.3838 0.9075 21.5358C-0.3025 20.6878 -0.3025 19.3117 0.9075 18.4637ZM13.8775 1.05975C15.8945 -0.35325 19.1645 -0.35325 21.1815 1.05975C23.1985 2.47375 23.1985 4.76476 21.1815 6.17876C19.1645 7.59276 15.8945 7.59276 13.8775 6.17876C11.8605 4.76476 11.8605 2.47375 13.8775 1.05975ZM6.02051 9.76175C7.63351 8.63075 10.2505 8.63075 11.8635 9.76175C13.4775 10.8928 13.4775 12.7258 11.8635 13.8568C10.2505 14.9878 7.63351 14.9878 6.02051 13.8568C4.40651 12.7258 4.40651 10.8928 6.02051 9.76175ZM13.8775 33.8208C15.8945 32.4068 19.1645 32.4068 21.1815 33.8208C23.1985 35.2338 23.1985 37.5257 21.1815 38.9397C19.1645 40.3527 15.8945 40.3527 13.8775 38.9397C11.8605 37.5257 11.8605 35.2338 13.8775 33.8208ZM33.4205 16.9288C35.8405 15.2318 39.7645 15.2318 42.1855 16.9288C44.6055 18.6248 44.6055 21.3748 42.1855 23.0708C39.7645 24.7678 35.8405 24.7678 33.4205 23.0708C31.0005 21.3748 31.0005 18.6248 33.4205 16.9288ZM22.7675 25.1187C25.1875 23.4227 29.1115 23.4227 31.5315 25.1187C33.9525 26.8147 33.9525 29.5647 31.5315 31.2607C29.1115 32.9577 25.1875 32.9577 22.7675 31.2607C20.3475 29.5647 20.3475 26.8147 22.7675 25.1187Z" fill="#FFBE6F"/></g>
            <g id="logotype" transform="translate(50, 21)"><path fill="#111111" d=""/></g>
            
          </svg>
        